<?xml version="1.0" ?><!DOCTYPE svg  PUBLIC '-//W3C//DTD SVG 1.1//EN'  'http://www.w3.org/Graphics/SVG/1.1/DTD/svg11.dtd'><svg enable-background="new 0 0 249.507 246.928" height="246.928" id="Layer_1" overflow="visible" version="1.1" viewBox="0 0 249.507 246.928" width="249.507" xml:space="preserve" xmlns="http://www.w3.org/2000/svg" xmlns:xlink="http://www.w3.org/1999/xlink"><path d="M191.63,104.057c0,0-0.205,33.472-8.092,40.155c-7.895,6.681-33.293,13.201-33.293,13.201l-2.41-51.637  L191.63,104.057z" fill="#D9D9D9"/><path d="M162.464,153.805c0,0-5.807-21.899,24.131-42.059l-30.506,13.97  L162.464,153.805z" enable-background="new    " fill="#B2B2B2" opacity="0.28"/><path d="M191.609,105.439c-1.932,2.26-3.238,4.43-3.238,4.43  c0,34.444-26.268,37.046-26.268,37.046c-0.54,2.514-0.615,4.893-0.318,7.108c7.793-2.519,17.414-6.142,21.754-9.812  C190.466,138.343,191.468,111.811,191.609,105.439z" enable-background="new    " fill="#B2B2B2" opacity="0.33"/><path d="M101.253,149.974c0-66.047,26.029-84.623,76.272-86.97c-1.668-12.998-5.989-21.875-15.753-21.669  c-11.926,2.847-23.682,2.73-36.98,7.196C124.509,39.24,119.253,1.61,109.8,1.61C89.032-3.272,48.376,2.842,40.901,21.418  c-2.638,17.313,3.941,46.829,8.052,54.318c-15.46,5.456-15.46,5.456-36.055,14.188c-16.744,10.139-2.818,54.267,13.562,66.99  c11.749,8.994,25.073-0.197,39.919-5.146c5.613,24.416,8.479,56.496,12.636,80.299l57.393-0.117  C113.359,221.791,101.253,198.98,101.253,149.974z"/><path d="M249.307,153.427c0,64.044-17.609,76.305-64.98,76.572c-42.152,0.237-64.979-9.396-64.979-76.572  c0-60.91,22.215-74.619,64.979-74.619C239.4,78.808,249.307,99.177,249.307,153.427z"/></svg>